<svg xmlns="http://www.w3.org/2000/svg" width="176" height="176" viewBox="0 0 176 176">
  <rect width="176" height="176" fill="#f9fafb" rx="8"/>
  <rect x="8" y="8" width="160" height="160" fill="none" stroke="#d1d5db" stroke-width="1" rx="4"/>
  <!-- QR corner markers -->
  <rect x="16" y="16" width="40" height="40" fill="none" stroke="#374151" stroke-width="3" rx="3"/>
  <rect x="22" y="22" width="28" height="28" fill="#374151" rx="2"/>
  <rect x="120" y="16" width="40" height="40" fill="none" stroke="#374151" stroke-width="3" rx="3"/>
  <rect x="126" y="22" width="28" height="28" fill="#374151" rx="2"/>
  <rect x="16" y="120" width="40" height="40" fill="none" stroke="#374151" stroke-width="3" rx="3"/>
  <rect x="22" y="126" width="28" height="28" fill="#374151" rx="2"/>
  <!-- Placeholder dots -->
  <rect x="64" y="16" width="8" height="8" fill="#9ca3af"/>
  <rect x="76" y="16" width="8" height="8" fill="#9ca3af"/>
  <rect x="88" y="16" width="8" height="8" fill="#9ca3af"/>
  <rect x="100" y="16" width="8" height="8" fill="#9ca3af"/>
  <rect x="64" y="28" width="8" height="8" fill="#9ca3af"/>
  <rect x="88" y="28" width="8" height="8" fill="#9ca3af"/>
  <rect x="64" y="40" width="8" height="8" fill="#9ca3af"/>
  <rect x="76" y="40" width="8" height="8" fill="#9ca3af"/>
  <rect x="100" y="40" width="8" height="8" fill="#9ca3af"/>
  <!-- Center placeholder text area -->
  <rect x="56" y="64" width="64" height="48" fill="#e5e7eb" rx="4"/>
  <text x="88" y="84" font-family="sans-serif" font-size="9" fill="#6b7280" text-anchor="middle">请替换为</text>
  <text x="88" y="96" font-family="sans-serif" font-size="9" fill="#6b7280" text-anchor="middle">您的微信</text>
  <text x="88" y="108" font-family="sans-serif" font-size="9" fill="#6b7280" text-anchor="middle">二维码</text>
  <!-- Bottom rows placeholder -->
  <rect x="16" y="64" width="8" height="8" fill="#9ca3af"/>
  <rect x="28" y="64" width="8" height="8" fill="#9ca3af"/>
  <rect x="40" y="64" width="8" height="8" fill="#9ca3af"/>
  <rect x="16" y="76" width="8" height="8" fill="#9ca3af"/>
  <rect x="40" y="76" width="8" height="8" fill="#9ca3af"/>
  <rect x="16" y="88" width="8" height="8" fill="#9ca3af"/>
  <rect x="28" y="88" width="8" height="8" fill="#9ca3af"/>
  <rect x="16" y="100" width="8" height="8" fill="#9ca3af"/>
  <rect x="40" y="100" width="8" height="8" fill="#9ca3af"/>
  <rect x="128" y="64" width="8" height="8" fill="#9ca3af"/>
  <rect x="140" y="64" width="8" height="8" fill="#9ca3af"/>
  <rect x="152" y="64" width="8" height="8" fill="#9ca3af"/>
  <rect x="128" y="76" width="8" height="8" fill="#9ca3af"/>
  <rect x="152" y="76" width="8" height="8" fill="#9ca3af"/>
  <rect x="128" y="88" width="8" height="8" fill="#9ca3af"/>
  <rect x="140" y="88" width="8" height="8" fill="#9ca3af"/>
  <rect x="152" y="88" width="8" height="8" fill="#9ca3af"/>
  <rect x="64" y="120" width="8" height="8" fill="#9ca3af"/>
  <rect x="76" y="120" width="8" height="8" fill="#9ca3af"/>
  <rect x="100" y="120" width="8" height="8" fill="#9ca3af"/>
  <rect x="64" y="132" width="8" height="8" fill="#9ca3af"/>
  <rect x="88" y="132" width="8" height="8" fill="#9ca3af"/>
  <rect x="100" y="132" width="8" height="8" fill="#9ca3af"/>
  <rect x="76" y="144" width="8" height="8" fill="#9ca3af"/>
  <rect x="88" y="144" width="8" height="8" fill="#9ca3af"/>
  <rect x="128" y="120" width="8" height="8" fill="#9ca3af"/>
  <rect x="152" y="120" width="8" height="8" fill="#9ca3af"/>
  <rect x="140" y="132" width="8" height="8" fill="#9ca3af"/>
  <rect x="128" y="144" width="8" height="8" fill="#9ca3af"/>
  <rect x="152" y="144" width="8" height="8" fill="#9ca3af"/>
</svg>
